<svg width="19" height="19" viewBox="0 0 19 19" fill="none" xmlns="http://www.w3.org/2000/svg">
<path d="M18.7771 17.6248L13.4928 12.2924C14.5269 10.9964 15.1503 9.35407 15.1503 7.56834C15.1503 3.38844 11.7611 0 7.57517 0C3.38928 0 0 3.39339 0 7.57329C0 11.7532 3.38928 15.1416 7.57517 15.1416C9.38608 15.1416 11.0436 14.5085 12.3498 13.4499L17.5995 18.7477C17.7579 18.9159 17.9756 19 18.1883 19C18.3912 19 18.594 18.9258 18.7474 18.7774C19.074 18.4658 19.0839 17.9513 18.7771 17.6248ZM7.57517 13.5142C5.98691 13.5142 4.49265 12.8959 3.36949 11.773C2.24633 10.6501 1.62784 9.15621 1.62784 7.57329C1.62784 5.98542 2.24633 4.49154 3.36949 3.3736C4.49265 2.25072 5.98691 1.63239 7.57517 1.63239C9.16343 1.63239 10.6577 2.25072 11.7808 3.3736C12.904 4.49649 13.5225 5.99037 13.5225 7.57329C13.5225 9.16116 12.904 10.655 11.7808 11.773C10.6577 12.8959 9.16343 13.5142 7.57517 13.5142Z" fill="black"/>
</svg>
